<?xml version="1.0" standalone="no"?><!DOCTYPE svg PUBLIC "-//W3C//DTD SVG 1.1//EN" "http://www.w3.org/Graphics/SVG/1.1/DTD/svg11.dtd"><svg class="icon" width="200px" height="200.00px" viewBox="0 0 1024 1024" version="1.1" xmlns="http://www.w3.org/2000/svg"><path fill="#2c2c2c" d="M720.02461 351.522c0 259.827-221.377 469.494-494.203 473.068 78.511 91.057 197.258 145.666 326.238 145.666 231.677 0 418.199-174.779 418.199-388.489 0-162.588-109.02-306.676-270.391-363.244 13.31 42.857 20.157 87.526 20.157 132.999z m-76.28-131.527c-9.555-27.056-9.008-37.45 0-49.873 0 0 28.78-16.85 59.647-7.072C889.78761 222.094 1024.00061 387.29 1024.00061 581.767 1024.00061 825.967 812.66361 1024 552.05861 1024c-157.888 0-297.578-72.693-383.223-184.328-6.154-8.02-9.26-17.873-8.79-27.879 1.123-23.846 21.853-42.292 46.304-41.198 4.426 0.2 8.555 0.298 12.386 0.298 247.14 0 447.545-187.79 447.545-419.371 0-45.951-7.932-90.164-22.537-131.526zM337.56061 498.625l4.356-26.754-18.702-19.487c-4.375-4.557-4.27-11.84 0.235-16.266a11.32 11.32 0 0 1 6.246-3.126l25.33-3.814 20.89-44.885a0.752 0.752 0 0 0 0.051-0.154l0.015-0.068a0.046 0.046 0 0 1 0.012-0.023 0.01 0.01 0 0 1 0.015 0.004l20.935 45.126 25.36 3.819c6.21 0.935 10.496 6.787 9.572 13.072a11.556 11.556 0 0 1-3.08 6.31l-18.665 19.492 4.355 26.753c1.022 6.27-3.173 12.188-9.369 13.22a11.255 11.255 0 0 1-7.338-1.276l-21.754-12.138-21.756 12.138c-5.498 3.068-12.413 1.045-15.445-4.519a11.62 11.62 0 0 1-1.263-7.425zM32.55061 178.151l8.99-53.652L3.42261 85.91a11.768 11.768 0 0 1 0.252-16.84 12.193 12.193 0 0 1 6.655-3.237l52.16-7.631C74.85061 19.401 86.55761 0 97.61061 0c11.054 0 21.676 19.4 31.866 58.202l52.191 7.636c6.618 0.97 11.183 7.027 10.2 13.533a11.834 11.834 0 0 1-3.282 6.534L150.55061 124.5l8.99 53.652c1.086 6.49-3.383 12.618-9.984 13.688a12.29 12.29 0 0 1-7.817-1.323l-45.695-24.774-45.696 24.774c-5.858 3.177-13.226 1.083-16.455-4.677a11.737 11.737 0 0 1-1.346-7.686z" /></svg>