<?xml version="1.0" standalone="no"?><!DOCTYPE svg PUBLIC "-//W3C//DTD SVG 1.1//EN" "http://www.w3.org/Graphics/SVG/1.1/DTD/svg11.dtd"><svg class="icon" width="200px" height="200.00px" viewBox="0 0 1024 1024" version="1.1" xmlns="http://www.w3.org/2000/svg"><path d="M1024 0H0v1024h1024V0z" fill="#FFFFFF" fill-opacity=".01" /><path d="M53.333333 512C53.333333 258.688 258.688 53.333333 512 53.333333S970.666667 258.688 970.666667 512c0 41.813333-23.808 69.12-53.248 86.186667-27.648 16.042667-63.317333 25.045333-96.298667 32.213333-10.24 2.218667-20.181333 4.266667-29.994667 6.229333-23.808 4.864-46.336 9.472-67.413333 15.573334-29.952 8.746667-49.408 18.645333-59.733333 30.336L640 661.333333l23.936 21.205334c-14.037333 15.872-22.357333 37.674667-27.605333 65.322666-3.712 19.626667-5.504 39.253333-7.381334 59.946667-0.853333 9.344-1.706667 18.901333-2.773333 28.757333-3.157333 28.928-8.234667 62.08-24.32 88.064-8.533333 13.738667-20.309333 25.770667-36.224 34.090667-15.744 8.234667-33.749333 11.946667-53.632 11.946667-253.312 0-458.666667-205.354667-458.666667-458.666667zM512 117.333333a394.666667 394.666667 0 1 0 0 789.333334c11.946667 0 19.285333-2.218667 23.978667-4.650667a29.269333 29.269333 0 0 0 11.477333-11.136c7.594667-12.245333 11.946667-31.872 15.104-61.226667 0.810667-7.466667 1.536-15.573333 2.304-24.149333 2.005333-21.973333 4.266667-46.72 8.618667-69.589333 6.186667-32.64 17.493333-67.541333 42.581333-95.786667 22.954667-25.984 57.514667-39.978667 89.813333-49.365333 23.722667-6.912 50.346667-12.330667 75.093334-17.408 9.216-1.834667 18.133333-3.669333 26.581333-5.546667 33.365333-7.168 59.861333-14.592 77.781333-24.96 16.128-9.386667 21.333333-18.432 21.333334-30.848A394.666667 394.666667 0 0 0 512 117.333333zM501.333333 298.666667a96 96 0 1 1 192 0 96 96 0 0 1-192 0zM597.333333 266.666667a32 32 0 1 0 0 64 32 32 0 0 0 0-64zM245.333333 384a96 96 0 1 1 192 0 96 96 0 0 1-192 0zM341.333333 352a32 32 0 1 0 0 64 32 32 0 0 0 0-64zM266.666667 661.333333a96 96 0 1 1 192 0 96 96 0 0 1-192 0z m96-32a32 32 0 1 0 0 64 32 32 0 0 0 0-64z" fill="#888888" /></svg>